<svg width="70" height="42" viewBox="0 0 70 42" fill="none" xmlns="http://www.w3.org/2000/svg">
<path fill-rule="evenodd" clip-rule="evenodd" d="M12.9403 0H0L14.8689 20.964L0 42H12.9403L27.8144 20.964L12.9403 0Z" fill="#FF6200"/>
<path d="M29.3812 9.39648H35.5934L40.3701 17.2169L45.314 9.39648H51.1764L43.374 21.0807L51.8583 33.879H45.48L40.1656 25.4076L34.7402 33.879H28.7324L37.2334 21.0484L29.3812 9.39648Z" fill="white"/>
<path d="M58.8264 13.4405L57.8736 18.8972L57.9452 18.9639C58.6105 18.3015 59.3142 17.8217 60.0626 17.538C60.811 17.2469 61.6642 17.1092 62.6181 17.1092C63.8045 17.1092 64.8508 17.3262 65.76 17.7601C66.6683 18.1951 67.4395 18.7741 68.0654 19.5032C68.6913 20.2324 69.1687 21.0899 69.4998 22.0881C69.833 23.0802 69.9991 24.1327 69.9991 25.2509C69.9991 26.4933 69.7552 27.6345 69.2787 28.6881C68.8034 29.7521 68.1536 30.6753 67.3502 31.4503C66.5354 32.2295 65.5991 32.82 64.5352 33.2424C63.4609 33.667 62.3295 33.8673 61.1213 33.8443C59.9578 33.8443 58.8492 33.6889 57.7915 33.3781C56.738 33.0714 55.8018 32.5968 54.9818 31.9625C54.1607 31.3168 53.5079 30.5272 53.02 29.5789C52.5322 28.6328 52.2768 27.5292 52.255 26.2711H57.0982C57.2093 27.3685 57.6192 28.2427 58.3282 28.8873C59.0267 29.5403 59.9246 29.8689 61.0165 29.8689C61.6538 29.8689 62.2299 29.7396 62.7344 29.4788C63.2492 29.2159 63.682 28.8769 64.036 28.4534C64.3847 28.0309 64.6567 27.5406 64.8508 26.9836C65.0501 26.4213 65.1445 25.8466 65.1445 25.2572C65.1445 24.6449 65.0501 24.0597 64.8674 23.5152C64.6909 22.9738 64.4138 22.496 64.0536 22.084C63.6872 21.6709 63.2606 21.3486 62.751 21.1264C62.2527 20.8969 61.6767 20.7915 61.0165 20.7915C60.1529 20.7915 59.4481 20.9365 58.9053 21.2484C58.351 21.5603 57.8414 22.0402 57.3649 22.7078H53.0034L55.3575 9.43066H68.7027V13.4415L58.8264 13.4405Z" fill="white"/>
</svg>
